<?xml version="1.0" encoding="UTF-8" standalone="no"?>
<!-- Created with Inkscape (http://www.inkscape.org/) -->

<svg
   width="1122.5197"
   height="793.70081"
   viewBox="0 0 296.99998 210"
   version="1.1"
   id="svg1"
   inkscape:version="1.3.2 (091e20e, 2023-11-25)"
   sodipodi:docname="logo.svg"
   xmlns:inkscape="http://www.inkscape.org/namespaces/inkscape"
   xmlns:sodipodi="http://sodipodi.sourceforge.net/DTD/sodipodi-0.dtd"
   xmlns="http://www.w3.org/2000/svg"
   xmlns:svg="http://www.w3.org/2000/svg">
  <sodipodi:namedview
     id="namedview1"
     pagecolor="#211d27"
     bordercolor="#000000"
     borderopacity="0.25"
     inkscape:showpageshadow="2"
     inkscape:pageopacity="0.0"
     inkscape:pagecheckerboard="0"
     inkscape:deskcolor="#d1d1d1"
     inkscape:document-units="px"
     inkscape:export-bgcolor="#07000000"
     inkscape:zoom="0.46502525"
     inkscape:cx="396.75265"
     inkscape:cy="561.25984"
     inkscape:window-width="1328"
     inkscape:window-height="704"
     inkscape:window-x="0"
     inkscape:window-y="0"
     inkscape:window-maximized="1"
     inkscape:current-layer="layer1" />
  <defs
     id="defs1" />
  <g
     inkscape:label="Layer 1"
     inkscape:groupmode="layer"
     id="layer1">
    <path
       id="path10"
       style="color:#000000;fill:#fdffff;fill-opacity:0.97254902;-inkscape-stroke:none"
       d="M 121.38799 52.514265 L 121.38795 137.87109 C 121.38797 137.87875 121.38733 137.88606 121.38735 137.89372 C 121.38736 137.90138 121.3878 137.90879 121.38777 137.91635 L 121.3876 168.3766 L 126.67927 168.3766 L 126.67956 155.73414 C 131.74504 163.38411 139.96699 168.37604 149.2327 168.37604 C 164.57929 168.37604 177.07646 154.69457 177.07645 137.89372 C 177.07645 121.09288 164.57925 107.4114 149.23265 107.4114 C 139.96694 107.4114 131.74499 112.40332 126.6795 120.05329 L 126.67965 52.514265 L 121.38799 52.514265 z M 85.781345 53.460172 C 84.394884 53.481237 83.010192 53.661604 81.640596 54.003843 C 74.336086 55.829111 67.846672 61.889271 62.900461 71.277401 C 53.008036 90.053661 51.135705 118.12867 58.025681 140.77953 C 61.470668 152.10496 66.710243 160.7307 73.183628 165.82005 C 79.657014 170.9094 87.697383 172.18576 95.021454 168.4609 C 102.34552 164.73602 108.05683 156.98872 112.06032 147.08577 C 116.06381 137.18281 118.34161 125.01646 118.34161 112.05268 L 118.34183 109.28511 L 115.57404 109.28511 L 89.888789 109.28511 L 103.97046 62.989962 L 102.90827 61.826247 C 98.223455 56.692456 92.712462 53.831761 87.168028 53.492419 C 86.705992 53.464141 86.243499 53.453151 85.781345 53.460172 z M 85.928382 58.96533 C 86.256612 58.956532 86.585314 58.960109 86.914322 58.976645 C 90.494086 59.156563 94.108698 60.999924 97.707061 64.55252 L 82.416341 114.82252 L 112.68168 114.82252 C 112.37585 126.0741 110.33031 136.59303 106.92775 145.00952 C 103.24374 154.12223 98.049835 160.70879 92.511593 163.52543 C 86.973352 166.34207 81.798785 165.55207 76.605313 161.46899 C 71.41184 157.3859 66.535375 149.73063 63.32234 139.16775 C 56.896269 118.04198 58.859382 90.824351 67.798691 73.857148 C 72.268345 65.373547 77.768583 60.6782 82.984153 59.374922 C 83.962073 59.130557 84.943691 58.991726 85.928382 58.96533 z M 149.23258 113.20395 C 161.71934 113.20395 171.78375 124.22371 171.78375 137.89372 C 171.78375 151.56374 161.71953 162.58348 149.23277 162.58348 C 136.746 162.58348 126.68005 151.56374 126.68005 137.89372 C 126.68005 124.22371 136.74582 113.20395 149.23258 113.20395 z "
       transform="matrix(1,0,-0.40697271,0.91344032,0,0)"
       inkscape:export-filename="favicon-white.svg"
       inkscape:export-xdpi="3.2983315"
       inkscape:export-ydpi="3.2983315" />
  </g>
</svg>
