<?xml version="1.0" encoding="UTF-8" standalone="no"?>
<!-- Created with Inkscape (http://www.inkscape.org/) -->

<svg
   width="465.69003"
   height="407.7016"
   viewBox="0 0 123.21382 107.87105"
   version="1.1"
   id="svg1"
   xmlns="http://www.w3.org/2000/svg"
   xmlns:svg="http://www.w3.org/2000/svg">
  <defs
     id="defs1" />
  <g
     id="layer1"
     transform="translate(-0.3791298,-47.968647)">
    <path
       id="path10"
       style="color:#000000;fill:#0b0706;fill-opacity:0.972549;-inkscape-stroke:none"
       d="m 121.38799,52.514265 -4e-5,85.356825 c 2e-5,0.008 -6.2e-4,0.015 -6e-4,0.0226 1e-5,0.008 4.5e-4,0.0151 4.2e-4,0.0226 l -1.7e-4,30.46025 h 5.29167 l 2.9e-4,-12.64246 c 5.06548,7.64997 13.28743,12.6419 22.55314,12.6419 15.34659,0 27.84376,-13.68147 27.84375,-30.48232 0,-16.80084 -12.4972,-30.48232 -27.8438,-30.48232 -9.26571,0 -17.48766,4.99192 -22.55315,12.64189 l 1.5e-4,-67.539025 z m -35.606645,0.945907 c -1.386461,0.02107 -2.771153,0.201432 -4.140749,0.543671 -7.30451,1.825268 -13.793924,7.885428 -18.740135,17.273558 -9.892425,18.77626 -11.764756,46.851269 -4.87478,69.502129 3.444987,11.32543 8.684562,19.95117 15.157947,25.04052 6.473386,5.08935 14.513755,6.36571 21.837826,2.64085 7.324066,-3.72488 13.035376,-11.47218 17.038866,-21.37513 4.00349,-9.90296 6.28129,-22.06931 6.28129,-35.03309 l 2.2e-4,-2.76757 h -2.76779 -25.685251 l 14.081671,-46.295148 -1.06219,-1.163715 c -4.684815,-5.133791 -10.195808,-7.994486 -15.740242,-8.333828 -0.462036,-0.02828 -0.924529,-0.03927 -1.386683,-0.03225 z m 0.147037,5.505158 c 0.32823,-0.0088 0.656932,-0.0052 0.98594,0.01131 3.579764,0.179918 7.194376,2.023279 10.792739,5.575875 l -15.29072,50.270005 h 30.265339 c -0.30583,11.25158 -2.35137,21.7705 -5.75393,30.187 -3.68401,9.11271 -8.877915,15.69927 -14.416157,18.51591 -5.538241,2.81664 -10.712808,2.02663 -15.90628,-2.05645 C 71.41184,157.3859 66.535375,149.73063 63.32234,139.16775 56.896269,118.04198 58.859382,90.824351 67.798691,73.857148 72.268345,65.373547 77.768583,60.6782 82.984153,59.374922 c 0.97792,-0.244365 1.959538,-0.383196 2.944229,-0.409592 z m 63.304198,54.23862 c 12.48676,0 22.55117,11.01976 22.55117,24.68977 0,13.67002 -10.06422,24.68976 -22.55098,24.68976 -12.48677,0 -22.55272,-11.01974 -22.55272,-24.68976 0,-13.67001 10.06577,-24.68977 22.55253,-24.68977 z"
       transform="matrix(1,0,-0.40697271,0.91344032,0,0)" />
  </g>
</svg>
