<?xml version="1.0" encoding="UTF-8" standalone="no"?>
<!-- Created with Inkscape (http://www.inkscape.org/) -->

<svg
   width="1122.5197"
   height="250.0005"
   viewBox="0 0 296.99998 66.145965"
   version="1.1"
   id="svg1"
   xmlns="http://www.w3.org/2000/svg"
   xmlns:svg="http://www.w3.org/2000/svg">
  <defs
     id="defs1" />
  <g
     id="layer1"
     transform="translate(0,-71.927009)">
    <path
       id="path10"
       style="color:#000000;fill:#ffffff;fill-opacity:0.972549;fill-rule:nonzero;stroke-width:0.568615;-inkscape-stroke:none"
       d="M 57.514717,71.927013 37.462503,119.73686 c -0.0022,0.005 -0.0043,0.008 -0.0054,0.0127 -0.0022,0.005 -0.0032,0.008 -0.0054,0.0127 l -7.155887,17.06126 h 3.05458 l 2.970161,-7.08124 c 1.126856,4.28486 4.700208,7.08092 10.048768,7.08092 8.858709,0 19.28668,-7.6632 23.233569,-17.07362 3.946888,-9.4104 -0.0529,-17.07362 -8.911666,-17.07362 -5.34856,0 -11.267334,2.79606 -15.988488,7.08093 L 60.569276,71.927013 Z m -20.775889,0.52982 c -0.805277,0.0118 -1.646951,0.11284 -2.517937,0.30453 -4.645272,1.02236 -9.814898,4.41677 -14.875546,9.67524 C 9.224061,92.953543 1.5478319,108.67883 0.20383694,121.36591 c -0.67199746,6.34356 0.32613855,11.17497 2.86724726,14.02559 2.5411087,2.85063 6.8825117,3.56554 11.9853308,1.47919 5.10282,-2.08636 10.219639,-6.42575 14.857041,-11.97254 4.637413,-5.54681 8.810397,-12.36136 11.85588,-19.62258 l 0.650288,-1.55016 H 40.821931 25.995309 l 19.004294,-25.930757 -0.339762,-0.65182 c -1.498231,-2.87553 -4.007372,-4.47786 -7.128134,-4.66794 -0.260064,-0.0158 -0.52445,-0.022 -0.792879,-0.0181 z m -1.208404,3.08355 c 0.191537,-0.005 0.380429,-0.003 0.56646,0.006 2.024132,0.10077 3.677588,1.13328 4.920143,3.12315 L 20.38104,106.827 h 17.47044 c -2.819775,6.30218 -6.471675,12.19399 -10.413004,16.9082 -4.267339,5.10417 -8.812816,8.79341 -12.671415,10.37105 -3.858598,1.57764 -6.659985,1.13515 -8.6986763,-1.15184 -2.0386804,-2.287 -3.0551927,-6.57484 -2.4284424,-12.49128 1.2535006,-11.83286 8.7807197,-27.077917 17.9268357,-36.581557 4.573058,-4.75183 8.851063,-7.38178 12.167889,-8.11177 0.621901,-0.13688 1.221146,-0.21464 1.795757,-0.22942 z m 23.800028,30.380037 c 7.207898,0 10.428714,6.17233 7.217328,13.82911 -3.211386,7.6568 -11.609666,13.82912 -18.817553,13.82912 -7.207897,0 -10.429605,-6.17232 -7.21822,-13.82912 3.211386,-7.65678 11.610559,-13.82911 18.818445,-13.82911 z" />
    <text
       xml:space="preserve"
       style="font-size:23.872px;fill:#ffffff;fill-opacity:0.972549;fill-rule:nonzero;stroke:#0b0706;stroke-width:3.31557;stroke-opacity:0.972549"
       x="104.05815"
       y="75.707008"
       id="text7"
       transform="scale(0.80039264,1.2493868)"><tspan
         id="tspan7"
         style="font-size:23.872px;fill:#ffffff;fill-opacity:0.972549;fill-rule:nonzero;stroke:none;stroke-width:3.31557"
         x="104.05815"
         y="75.707008">G Brothers Finence</tspan><tspan
         style="font-size:23.872px;fill:#ffffff;fill-opacity:0.972549;fill-rule:nonzero;stroke:none;stroke-width:3.31557"
         x="104.05815"
         y="105.547"
         id="tspan8">&amp; Technology Services</tspan></text>
  </g>
</svg>
